{
  "accessors": [
    {
      "bufferView": 2,
      "componentType": 5126,
      "count": 65532,
      "max": [
        -0.77545058727264404,
        4.1720924377441406,
        22.838062286376953
      ],
      "min": [
        -4.2329525947570801,
        0.66161209344863892,
        18.506488800048828
      ],
      "type": "VEC3"
    },
    {
      "bufferView": 2,
      "byteOffset": 786384,
      "componentType": 5126,
      "count": 65532,
      "max": [
        0.99998682737350464,
        0.99999868869781494,
        0.96391499042510986
      ],
      "min": [
        -0.98211097717285156,
        -0.95878273248672485,
        -0.99999475479125977
      ],
      "type": "VEC3"
    },
    {
      "bufferView": 3,
      "componentType": 5126,
      "count": 65532,
      "max": [
        1,
        0.70980393886566162,
        0.42745098471641541,
        1
      ],
      "min": [
        0.050980392843484879,
        0.047058824449777603,
        0.039215687662363052,
        1
      ],
      "type": "VEC4"
    },
    {
      "bufferView": 0,
      "componentType": 5125,
      "count": 391638,
      "max": [
        65531
      ],
      "min": [
        0
      ],
      "type": "SCALAR"
    },
    {
      "bufferView": 2,
      "byteOffset": 1572768,
      "componentType": 5126,
      "count": 33290,
      "max": [
        -1.9663482904434204,
        3.8736519813537598,
        22.897871017456055
      ],
      "min": [
        -4.2900514602661133,
        0.5807422399520874,
        19.726421356201172
      ],
      "type": "VEC3"
    },
    {
      "bufferView": 2,
      "byteOffset": 1972248,
      "componentType": 5126,
      "count": 33290,
      "max": [
        0.29533198475837708,
        0.88480019569396973,
        0.99999499320983887
      ],
      "min": [
        -0.99998688697814941,
        -0.99999862909317017,
        -0.4030420184135437
      ],
      "type": "VEC3"
    },
    {
      "bufferView": 3,
      "byteOffset": 1048512,
      "componentType": 5126,
      "count": 33290,
      "max": [
        1,
        0.70980393886566162,
        0.3803921639919281,
        1
      ],
      "min": [
        0.050980392843484879,
        0.047058824449777603,
        0.039215687662363052,
        1
      ],
      "type": "VEC4"
    },
    {
      "bufferView": 0,
      "byteOffset": 1566552,
      "componentType": 5125,
      "count": 198186,
      "max": [
        33289
      ],
      "min": [
        0
      ],
      "type": "SCALAR"
    },
    {
      "bufferView": 2,
      "byteOffset": 2371728,
      "componentType": 5126,
      "count": 65532,
      "max": [
        8.051762580871582,
        4.100654125213623,
        22.790990829467773
      ],
      "min": [
        4.720984935760498,
        0.71884208917617798,
        18.120668411254883
      ],
      "type": "VEC3"
    },
    {
      "bufferView": 2,
      "byteOffset": 3158112,
      "componentType": 5126,
      "count": 65532,
      "max": [
        0.99998724460601807,
        0.99999868869781494,
        0.95540207624435425
      ],
      "min": [
        -0.98549020290374756,
        -0.95878493785858154,
        -0.99999415874481201
      ],
      "type": "VEC3"
    },
    {
      "bufferView": 3,
      "byteOffset": 1581152,
      "componentType": 5126,
      "count": 65532,
      "max": [
        1,
        0.70980393886566162,
        0.38823530077934265,
        1
      ],
      "min": [
        0.062745101749897003,
        0.031372550874948502,
        0.031372550874948502,
        1
      ],
      "type": "VEC4"
    },
    {
      "bufferView": 0,
      "byteOffset": 2359296,
      "componentType": 5125,
      "count": 391638,
      "max": [
        65531
      ],
      "min": [
        0
      ],
      "type": "SCALAR"
    },
    {
      "bufferView": 2,
      "byteOffset": 3944496,
      "componentType": 5126,
      "count": 33290,
      "max": [
        6.9045138359069824,
        3.8131551742553711,
        22.855508804321289
      ],
      "min": [
        4.6659789085388184,
        0.64093637466430664,
        19.436023712158203
      ],
      "type": "VEC3"
    },
    {
      "bufferView": 2,
      "byteOffset": 4343976,
      "componentType": 5126,
      "count": 33290,
      "max": [
        0.3118034303188324,
        0.89724969863891602,
        0.99999415874481201
      ],
      "min": [
        -0.99998706579208374,
        -0.99999856948852539,
        -0.3661731481552124
      ],
      "type": "VEC3"
    },
    {
      "bufferView": 3,
      "byteOffset": 2629664,
      "componentType": 5126,
      "count": 33290,
      "max": [
        1,
        0.70980393886566162,
        0.35294118523597717,
        1
      ],
      "min": [
        0.062745101749897003,
        0.031372550874948502,
        0.031372550874948502,
        1
      ],
      "type": "VEC4"
    },
    {
      "bufferView": 0,
      "byteOffset": 3925848,
      "componentType": 5125,
      "count": 198186,
      "max": [
        33289
      ],
      "min": [
        0
      ],
      "type": "SCALAR"
    },
    {
      "bufferView": 2,
      "byteOffset": 4743456,
      "componentType": 5126,
      "count": 65532,
      "max": [
        14.232815742492676,
        20.952529907226562,
        24.077291488647461
      ],
      "min": [
        -10.563752174377441,
        -15.071818351745605,
        -26.546388626098633
      ],
      "type": "VEC3"
    },
    {
      "bufferView": 2,
      "byteOffset": 5529840,
      "componentType": 5126,
      "count": 65532,
      "max": [
        0.99998253583908081,
        0.99999982118606567,
        0.99999839067459106
      ],
      "min": [
        -0.99997484683990479,
        -0.99991750717163086,
        -0.9999886155128479
      ],
      "type": "VEC3"
    },
    {
      "bufferView": 3,
      "byteOffset": 3162304,
      "componentType": 5126,
      "count": 65532,
      "max": [
        0.99958652257919312,
        0.99999833106994629,
        0.99999988079071045,
        1
      ],
      "min": [
        -0.9999995231628418,
        -0.99999195337295532,
        -0.99999666213989258,
        1
      ],
      "type": "VEC4"
    },
    {
      "bufferView": 3,
      "byteOffset": 4210816,
      "componentType": 5126,
      "count": 65532,
      "max": [
        0.94901961088180542,
        0.81176471710205078,
        0.60000002384185791,
        1
      ],
      "min": [
        0.011764706112444401,
        0.0078431377187371254,
        0.0039215688593685627,
        1
      ],
      "type": "VEC4"
    },
    {
      "bufferView": 1,
      "componentType": 5126,
      "count": 65532,
      "max": [
        0.75,
        1
      ],
      "min": [
        0,
        0
      ],
      "type": "VEC2"
    },
    {
      "bufferView": 0,
      "byteOffset": 4718592,
      "componentType": 5125,
      "count": 370791,
      "max": [
        65531
      ],
      "min": [
        0
      ],
      "type": "SCALAR"
    },
    {
      "bufferView": 2,
      "byteOffset": 6316224,
      "componentType": 5126,
      "count": 41581,
      "max": [
        14.150056838989258,
        20.329154968261719,
        23.018672943115234
      ],
      "min": [
        -10.563752174377441,
        -13.300837516784668,
        -26.546388626098633
      ],
      "type": "VEC3"
    },
    {
      "bufferView": 2,
      "byteOffset": 6815196,
      "componentType": 5126,
      "count": 41581,
      "max": [
        0.99986916780471802,
        0.99999815225601196,
        0.99981832504272461
      ],
      "min": [
        -0.9999573826789856,
        -0.99986499547958374,
        -0.99979585409164429
      ],
      "type": "VEC3"
    },
    {
      "bufferView": 3,
      "byteOffset": 5259328,
      "componentType": 5126,
      "count": 41581,
      "max": [
        1,
        0.99998676776885986,
        0.99995779991149902,
        1
      ],
      "min": [
        -0.99999719858169556,
        -0.99999195337295532,
        -0.99996650218963623,
        1
      ],
      "type": "VEC4"
    },
    {
      "bufferView": 3,
      "byteOffset": 5924624,
      "componentType": 5126,
      "count": 41581,
      "max": [
        0.94901961088180542,
        0.81176471710205078,
        0.60000002384185791,
        1
      ],
      "min": [
        0.031372550874948502,
        0.023529412224888802,
        0.0078431377187371254,
        1
      ],
      "type": "VEC4"
    },
    {
      "bufferView": 1,
      "byteOffset": 524256,
      "componentType": 5126,
      "count": 41581,
      "max": [
        0.75,
        0.75
      ],
      "min": [
        0.015625,
        0
      ],
      "type": "VEC2"
    },
    {
      "bufferView": 0,
      "byteOffset": 6201756,
      "componentType": 5125,
      "count": 219033,
      "max": [
        41580
      ],
      "min": [
        0
      ],
      "type": "SCALAR"
    }
  ],
  "asset": {
    "extras": {
      "author": "ThyGamingNerd (https://sketchfab.com/thygamingnerd)",
      "license": "CC-BY-4.0 (http://creativecommons.org/licenses/by/4.0/)",
      "source": "https://sketchfab.com/3d-models/jar-jar-binx-edited-sculptgl-only-4bc03ec79e104849827af456378fe350",
      "title": "Jar-Jar Binx (edited) -(SculptGL only)"
    },
    "generator": "Sketchfab-6.22.0",
    "version": "2.0"
  },
  "bufferViews": [
    {
      "buffer": 0,
      "byteLength": 7077888,
      "byteOffset": 0,
      "name": "floatBufferViews",
      "target": 34963
    },
    {
      "buffer": 0,
      "byteLength": 856904,
      "byteOffset": 7077888,
      "byteStride": 8,
      "name": "floatBufferViews",
      "target": 34962
    },
    {
      "buffer": 0,
      "byteLength": 7314168,
      "byteOffset": 7934792,
      "byteStride": 12,
      "name": "floatBufferViews",
      "target": 34962
    },
    {
      "buffer": 0,
      "byteLength": 6589920,
      "byteOffset": 15248960,
      "byteStride": 16,
      "name": "floatBufferViews",
      "target": 34962
    }
  ],
  "buffers": [
    {
      "byteLength": 21838880,
      "uri": "scene.bin"
    }
  ],
  "materials": [
    {
      "doubleSided": true,
      "emissiveFactor": [
        0,
        0,
        0
      ],
      "name": "material_0",
      "pbrMetallicRoughness": {
        "baseColorFactor": [
          0.5,
          0.5,
          0.5,
          1
        ],
        "metallicFactor": 0,
        "roughnessFactor": 0.59999999999999998
      }
    }
  ],
  "meshes": [
    {
      "primitives": [
        {
          "attributes": {
            "COLOR_0": 2,
            "NORMAL": 1,
            "POSITION": 0
          },
          "indices": 3,
          "material": 0,
          "mode": 4
        }
      ]
    },
    {
      "primitives": [
        {
          "attributes": {
            "COLOR_0": 6,
            "NORMAL": 5,
            "POSITION": 4
          },
          "indices": 7,
          "material": 0,
          "mode": 4
        }
      ]
    },
    {
      "primitives": [
        {
          "attributes": {
            "COLOR_0": 10,
            "NORMAL": 9,
            "POSITION": 8
          },
          "indices": 11,
          "material": 0,
          "mode": 4
        }
      ]
    },
    {
      "primitives": [
        {
          "attributes": {
            "COLOR_0": 14,
            "NORMAL": 13,
            "POSITION": 12
          },
          "indices": 15,
          "material": 0,
          "mode": 4
        }
      ]
    },
    {
      "primitives": [
        {
          "attributes": {
            "COLOR_0": 19,
            "NORMAL": 17,
            "POSITION": 16,
            "TANGENT": 18,
            "TEXCOORD_0": 20
          },
          "indices": 21,
          "material": 0,
          "mode": 4
        }
      ]
    },
    {
      "primitives": [
        {
          "attributes": {
            "COLOR_0": 25,
            "NORMAL": 23,
            "POSITION": 22,
            "TANGENT": 24,
            "TEXCOORD_0": 26
          },
          "indices": 27,
          "material": 0,
          "mode": 4
        }
      ]
    }
  ],
  "nodes": [
    {
      "children": [
        1
      ],
      "name": "RootNode (gltf orientation matrix)",
      "rotation": [
        -0.70710678118654746,
        -0,
        -0,
        0.70710678118654757
      ]
    },
    {
      "children": [
        2
      ],
      "name": "RootNode (model correction matrix)"
    },
    {
      "children": [
        3,
        4,
        5,
        6,
        7,
        8
      ],
      "name": "yourMesh.obj.cleaner.gles"
    },
    {
      "mesh": 0,
      "name": ""
    },
    {
      "mesh": 1,
      "name": ""
    },
    {
      "mesh": 2,
      "name": ""
    },
    {
      "mesh": 3,
      "name": ""
    },
    {
      "mesh": 4,
      "name": ""
    },
    {
      "mesh": 5,
      "name": ""
    }
  ],
  "scene": 0,
  "scenes": [
    {
      "name": "OSG_Scene",
      "nodes": [
        0
      ]
    }
  ]
}

