{
  "accessors": [
    {
      "bufferView": 1,
      "componentType": 5126,
      "count": 65249,
      "max": [
        0.0079866517335176468,
        0.026646669954061508,
        0.29039508104324341
      ],
      "min": [
        -0.007986726239323616,
        -0.0012497325660660863,
        -0.0018017095280811191
      ],
      "type": "VEC3"
    },
    {
      "bufferView": 1,
      "byteOffset": 782988,
      "componentType": 5126,
      "count": 65249,
      "max": [
        1,
        1,
        1
      ],
      "min": [
        -1,
        -1,
        -1
      ],
      "type": "VEC3"
    },
    {
      "bufferView": 0,
      "componentType": 5125,
      "count": 391434,
      "max": [
        65248
      ],
      "min": [
        0
      ],
      "type": "SCALAR"
    }
  ],
  "asset": {
    "extras": {
      "author": "xenosmashgames (https://sketchfab.com/xenosmashgames)",
      "license": "CC-BY-4.0 (http://creativecommons.org/licenses/by/4.0/)",
      "source": "https://sketchfab.com/3d-models/magic-wand-ca53cda967c04aeebe88a5e3c7157b43",
      "title": "Magic Wand"
    },
    "generator": "Sketchfab-6.34.0",
    "version": "2.0"
  },
  "bufferViews": [
    {
      "buffer": 0,
      "byteLength": 1565736,
      "byteOffset": 0,
      "name": "floatBufferViews",
      "target": 34963
    },
    {
      "buffer": 0,
      "byteLength": 1565976,
      "byteOffset": 1565736,
      "byteStride": 12,
      "name": "floatBufferViews",
      "target": 34962
    }
  ],
  "buffers": [
    {
      "byteLength": 3131712,
      "uri": "scene.bin"
    }
  ],
  "materials": [
    {
      "doubleSided": true,
      "name": "Scene_-_Root",
      "pbrMetallicRoughness": {
        "baseColorFactor": [
          0.085152777483763306,
          0.043795445933111202,
          0,
          1
        ],
        "metallicFactor": 0,
        "roughnessFactor": 0.59999999999999998
      }
    }
  ],
  "meshes": [
    {
      "name": "Handle__0",
      "primitives": [
        {
          "attributes": {
            "NORMAL": 1,
            "POSITION": 0
          },
          "indices": 2,
          "material": 0,
          "mode": 4
        }
      ]
    }
  ],
  "nodes": [
    {
      "children": [
        1
      ],
      "name": "RootNode (gltf orientation matrix)",
      "rotation": [
        -0.70710678118654746,
        -0,
        -0,
        0.70710678118654757
      ]
    },
    {
      "children": [
        2
      ],
      "name": "RootNode (model correction matrix)"
    },
    {
      "children": [
        3
      ],
      "matrix": [
        1,
        0,
        0,
        0,
        0,
        0,
        1,
        0,
        0,
        -1,
        0,
        0,
        0,
        0,
        0,
        1
      ],
      "name": "e3cf5cf5a01d4709923168cd7e2746e2.fbx"
    },
    {
      "children": [
        4
      ],
      "name": "RootNode"
    },
    {
      "children": [
        5
      ],
      "matrix": [
        0.00029700176924910785,
        2.6032417546332276e-20,
        -3933.9077148437386,
        0,
        0.00017195659555982405,
        3933.9077148437459,
        1.2982361788326242e-11,
        0,
        3933.907714843735,
        -0.00017195659555982454,
        0.00029700176924910785,
        0,
        0,
        0,
        0,
        1
      ],
      "name": "Handle"
    },
    {
      "mesh": 0,
      "name": "Handle__0"
    }
  ],
  "scene": 0,
  "scenes": [
    {
      "name": "OSG_Scene",
      "nodes": [
        0
      ]
    }
  ]
}

