{
  "accessors": [
    {
      "bufferView": 2,
      "componentType": 5126,
      "count": 753,
      "max": [
        25.714199066162109,
        15.481399536132812,
        123.32099914550781
      ],
      "min": [
        -25.747299194335938,
        -15.82919979095459,
        91.68060302734375
      ],
      "type": "VEC3"
    },
    {
      "bufferView": 2,
      "byteOffset": 9036,
      "componentType": 5126,
      "count": 753,
      "max": [
        1,
        1,
        1
      ],
      "min": [
        -1,
        -1,
        -1
      ],
      "type": "VEC3"
    },
    {
      "bufferView": 3,
      "componentType": 5126,
      "count": 753,
      "max": [
        1,
        1,
        1,
        1
      ],
      "min": [
        -0.99960947036743164,
        -1,
        -1,
        1
      ],
      "type": "VEC4"
    },
    {
      "bufferView": 1,
      "componentType": 5126,
      "count": 753,
      "max": [
        0.99777799844741821,
        0.9834970235824585
      ],
      "min": [
        0.0022249999456107616,
        0.078050002455711365
      ],
      "type": "VEC2"
    },
    {
      "bufferView": 0,
      "componentType": 5125,
      "count": 1671,
      "max": [
        752
      ],
      "min": [
        0
      ],
      "type": "SCALAR"
    },
    {
      "bufferView": 2,
      "byteOffset": 18072,
      "componentType": 5126,
      "count": 6375,
      "max": [
        6.2891302108764648,
        6.045100212097168,
        91.524101257324219
      ],
      "min": [
        -6.2936000823974609,
        -6.0562400817871094,
        17.095600128173828
      ],
      "type": "VEC3"
    },
    {
      "bufferView": 2,
      "byteOffset": 94572,
      "componentType": 5126,
      "count": 6375,
      "max": [
        0.99999988079071045,
        0.99999833106994629,
        0.99999988079071045
      ],
      "min": [
        -0.99999988079071045,
        -0.99999833106994629,
        -0.99999988079071045
      ],
      "type": "VEC3"
    },
    {
      "bufferView": 3,
      "byteOffset": 12048,
      "componentType": 5126,
      "count": 6375,
      "max": [
        1,
        0.99999547004699707,
        0.9999966025352478,
        1
      ],
      "min": [
        -0.99998867511749268,
        -0.99999827146530151,
        -0.999991774559021,
        1
      ],
      "type": "VEC4"
    },
    {
      "bufferView": 1,
      "byteOffset": 6024,
      "componentType": 5126,
      "count": 6375,
      "max": [
        0.98872202634811401,
        0.98866498470306396
      ],
      "min": [
        0.0089989900588989258,
        0.006579000037163496
      ],
      "type": "VEC2"
    },
    {
      "bufferView": 0,
      "byteOffset": 6684,
      "componentType": 5125,
      "count": 31656,
      "max": [
        6374
      ],
      "min": [
        0
      ],
      "type": "SCALAR"
    },
    {
      "bufferView": 2,
      "byteOffset": 171072,
      "componentType": 5126,
      "count": 272,
      "max": [
        14.528800010681152,
        5.4671797752380371,
        87.862197875976562
      ],
      "min": [
        -25.121799468994141,
        -5.2122597694396973,
        6.6330099105834961
      ],
      "type": "VEC3"
    },
    {
      "bufferView": 2,
      "byteOffset": 174336,
      "componentType": 5126,
      "count": 272,
      "max": [
        0.99999988079071045,
        1,
        0.99869197607040405
      ],
      "min": [
        -0.99999988079071045,
        -1,
        -0.99701863527297974
      ],
      "type": "VEC3"
    },
    {
      "bufferView": 3,
      "byteOffset": 114048,
      "componentType": 5126,
      "count": 272,
      "max": [
        0.99999994039535522,
        1,
        0.70057570934295654,
        1
      ],
      "min": [
        -0.99999994039535522,
        -1,
        -0.97317379713058472,
        -1
      ],
      "type": "VEC4"
    },
    {
      "bufferView": 1,
      "byteOffset": 57024,
      "componentType": 5126,
      "count": 272,
      "max": [
        0.56581300497055054,
        0.98988598585128784
      ],
      "min": [
        0.015870999544858932,
        0.013105999678373337
      ],
      "type": "VEC2"
    },
    {
      "bufferView": 0,
      "byteOffset": 133308,
      "componentType": 5125,
      "count": 1200,
      "max": [
        271
      ],
      "min": [
        0
      ],
      "type": "SCALAR"
    }
  ],
  "asset": {
    "extras": {
      "author": "pjadhav1314 (https://sketchfab.com/pjadhav1314)",
      "license": "CC-BY-4.0 (http://creativecommons.org/licenses/by/4.0/)",
      "source": "https://sketchfab.com/3d-models/mjolnirthor-hammer-3d-model-30276ea473964d03a97f06ef04beeed3",
      "title": "Mjölnir(Thor Hammer 3d model)"
    },
    "generator": "Sketchfab-6.76.0",
    "version": "2.0"
  },
  "bufferViews": [
    {
      "buffer": 0,
      "byteLength": 138108,
      "byteOffset": 0,
      "name": "floatBufferViews",
      "target": 34963
    },
    {
      "buffer": 0,
      "byteLength": 59200,
      "byteOffset": 138108,
      "byteStride": 8,
      "name": "floatBufferViews",
      "target": 34962
    },
    {
      "buffer": 0,
      "byteLength": 177600,
      "byteOffset": 197308,
      "byteStride": 12,
      "name": "floatBufferViews",
      "target": 34962
    },
    {
      "buffer": 0,
      "byteLength": 118400,
      "byteOffset": 374908,
      "byteStride": 16,
      "name": "floatBufferViews",
      "target": 34962
    }
  ],
  "buffers": [
    {
      "byteLength": 493308,
      "uri": "scene.bin"
    }
  ],
  "images": [
    {
      "uri": "textures/1001_baseColor.png"
    },
    {
      "uri": "textures/1001_metallicRoughness.png"
    },
    {
      "uri": "textures/1001_emissive.png"
    },
    {
      "uri": "textures/1001_normal.png"
    },
    {
      "uri": "textures/1002_baseColor.png"
    },
    {
      "uri": "textures/1002_metallicRoughness.png"
    },
    {
      "uri": "textures/1002_emissive.png"
    },
    {
      "uri": "textures/1002_normal.png"
    },
    {
      "uri": "textures/1003_baseColor.png"
    },
    {
      "uri": "textures/1003_metallicRoughness.png"
    },
    {
      "uri": "textures/1003_normal.png"
    }
  ],
  "materials": [
    {
      "doubleSided": true,
      "emissiveFactor": [
        1,
        1,
        1
      ],
      "emissiveTexture": {
        "index": 2,
        "texCoord": 0
      },
      "name": "1001",
      "normalTexture": {
        "index": 3,
        "scale": 1,
        "texCoord": 0
      },
      "pbrMetallicRoughness": {
        "baseColorFactor": [
          1,
          1,
          1,
          1
        ],
        "baseColorTexture": {
          "index": 0,
          "texCoord": 0
        },
        "metallicFactor": 1,
        "metallicRoughnessTexture": {
          "index": 1,
          "texCoord": 0
        },
        "roughnessFactor": 1
      }
    },
    {
      "doubleSided": true,
      "emissiveFactor": [
        1,
        1,
        1
      ],
      "emissiveTexture": {
        "index": 6,
        "texCoord": 0
      },
      "name": "1002",
      "normalTexture": {
        "index": 7,
        "scale": 1,
        "texCoord": 0
      },
      "pbrMetallicRoughness": {
        "baseColorFactor": [
          1,
          1,
          1,
          1
        ],
        "baseColorTexture": {
          "index": 4,
          "texCoord": 0
        },
        "metallicFactor": 1,
        "metallicRoughnessTexture": {
          "index": 5,
          "texCoord": 0
        },
        "roughnessFactor": 1
      }
    },
    {
      "doubleSided": true,
      "name": "1003",
      "normalTexture": {
        "index": 10,
        "scale": 1,
        "texCoord": 0
      },
      "pbrMetallicRoughness": {
        "baseColorFactor": [
          1,
          1,
          1,
          1
        ],
        "baseColorTexture": {
          "index": 8,
          "texCoord": 0
        },
        "metallicFactor": 1,
        "metallicRoughnessTexture": {
          "index": 9,
          "texCoord": 0
        },
        "roughnessFactor": 1
      }
    }
  ],
  "meshes": [
    {
      "primitives": [
        {
          "attributes": {
            "NORMAL": 1,
            "POSITION": 0,
            "TANGENT": 2,
            "TEXCOORD_0": 3
          },
          "indices": 4,
          "material": 0,
          "mode": 4
        }
      ]
    },
    {
      "primitives": [
        {
          "attributes": {
            "NORMAL": 6,
            "POSITION": 5,
            "TANGENT": 7,
            "TEXCOORD_0": 8
          },
          "indices": 9,
          "material": 1,
          "mode": 4
        }
      ]
    },
    {
      "primitives": [
        {
          "attributes": {
            "NORMAL": 11,
            "POSITION": 10,
            "TANGENT": 12,
            "TEXCOORD_0": 13
          },
          "indices": 14,
          "material": 2,
          "mode": 4
        }
      ]
    }
  ],
  "nodes": [
    {
      "children": [
        1
      ],
      "name": "RootNode (gltf orientation matrix)",
      "rotation": [
        -0.70710678118654746,
        -0,
        -0,
        0.70710678118654757
      ]
    },
    {
      "children": [
        2
      ],
      "name": "RootNode (model correction matrix)"
    },
    {
      "children": [
        3,
        4,
        5
      ],
      "name": "Thor Hammer Final.obj.cleaner.materialmerger.gles"
    },
    {
      "mesh": 0,
      "name": ""
    },
    {
      "mesh": 1,
      "name": ""
    },
    {
      "mesh": 2,
      "name": ""
    }
  ],
  "samplers": [
    {
      "magFilter": 9729,
      "minFilter": 9987,
      "wrapS": 10497,
      "wrapT": 10497
    }
  ],
  "scene": 0,
  "scenes": [
    {
      "name": "OSG_Scene",
      "nodes": [
        0
      ]
    }
  ],
  "textures": [
    {
      "sampler": 0,
      "source": 0
    },
    {
      "sampler": 0,
      "source": 1
    },
    {
      "sampler": 0,
      "source": 2
    },
    {
      "sampler": 0,
      "source": 3
    },
    {
      "sampler": 0,
      "source": 4
    },
    {
      "sampler": 0,
      "source": 5
    },
    {
      "sampler": 0,
      "source": 6
    },
    {
      "sampler": 0,
      "source": 7
    },
    {
      "sampler": 0,
      "source": 8
    },
    {
      "sampler": 0,
      "source": 9
    },
    {
      "sampler": 0,
      "source": 10
    }
  ]
}

