{
  "accessors": [
    {
      "bufferView": 2,
      "componentType": 5126,
      "count": 2236,
      "max": [
        0.20020507276058197,
        0.93413358926773071,
        0.027057113125920296
      ],
      "min": [
        -0.20020502805709839,
        -1.5059036016464233,
        -0.027057113125920296
      ],
      "type": "VEC3"
    },
    {
      "bufferView": 2,
      "byteOffset": 26832,
      "componentType": 5126,
      "count": 2236,
      "max": [
        1,
        1,
        1
      ],
      "min": [
        -1,
        -1,
        -1
      ],
      "type": "VEC3"
    },
    {
      "bufferView": 3,
      "componentType": 5126,
      "count": 2236,
      "max": [
        1,
        1,
        1,
        1
      ],
      "min": [
        -1,
        -0.99278759956359863,
        -1,
        -1
      ],
      "type": "VEC4"
    },
    {
      "bufferView": 1,
      "componentType": 5126,
      "count": 2236,
      "max": [
        0.99609375,
        0.9951171875
      ],
      "min": [
        -0.9892578125,
        0.00421142578125
      ],
      "type": "VEC2"
    },
    {
      "bufferView": 1,
      "byteOffset": 17888,
      "componentType": 5126,
      "count": 2236,
      "max": [
        0.99609375,
        0.9951171875
      ],
      "min": [
        -0.9892578125,
        0.00421142578125
      ],
      "type": "VEC2"
    },
    {
      "bufferView": 1,
      "byteOffset": 35776,
      "componentType": 5126,
      "count": 2236,
      "max": [
        0.99609375,
        0.9951171875
      ],
      "min": [
        -0.9892578125,
        0.00421142578125
      ],
      "type": "VEC2"
    },
    {
      "bufferView": 1,
      "byteOffset": 53664,
      "componentType": 5126,
      "count": 2236,
      "max": [
        0.99609375,
        0.9951171875
      ],
      "min": [
        -0.9892578125,
        0.00421142578125
      ],
      "type": "VEC2"
    },
    {
      "bufferView": 1,
      "byteOffset": 71552,
      "componentType": 5126,
      "count": 2236,
      "max": [
        0.99609375,
        0.9951171875
      ],
      "min": [
        -0.9892578125,
        0.00421142578125
      ],
      "type": "VEC2"
    },
    {
      "bufferView": 1,
      "byteOffset": 89440,
      "componentType": 5126,
      "count": 2236,
      "max": [
        0.99609375,
        0.9951171875
      ],
      "min": [
        -0.9892578125,
        0.00421142578125
      ],
      "type": "VEC2"
    },
    {
      "bufferView": 1,
      "byteOffset": 107328,
      "componentType": 5126,
      "count": 2236,
      "max": [
        0.99609375,
        0.9951171875
      ],
      "min": [
        -0.9892578125,
        0.00421142578125
      ],
      "type": "VEC2"
    },
    {
      "bufferView": 1,
      "byteOffset": 125216,
      "componentType": 5126,
      "count": 2236,
      "max": [
        0.99609375,
        0.9951171875
      ],
      "min": [
        -0.9892578125,
        0.00421142578125
      ],
      "type": "VEC2"
    },
    {
      "bufferView": 1,
      "byteOffset": 143104,
      "componentType": 5126,
      "count": 2236,
      "max": [
        0.99609375,
        0.9951171875
      ],
      "min": [
        -0.9892578125,
        0.00421142578125
      ],
      "type": "VEC2"
    },
    {
      "bufferView": 0,
      "componentType": 5125,
      "count": 6246,
      "max": [
        2235
      ],
      "min": [
        0
      ],
      "type": "SCALAR"
    },
    {
      "bufferView": 4,
      "componentType": 5126,
      "count": 4,
      "max": [
        1,
        0,
        0,
        0,
        0,
        1,
        0,
        0,
        0,
        0,
        1,
        0,
        0,
        0,
        0,
        1
      ],
      "min": [
        1,
        0,
        0,
        0,
        0,
        1,
        0,
        0,
        0,
        0,
        1,
        0,
        0,
        0,
        0,
        1
      ],
      "type": "MAT4"
    }
  ],
  "asset": {
    "extras": {
      "author": "suummalumcuique (https://sketchfab.com/suummalumcuique)",
      "license": "CC-BY-4.0 (http://creativecommons.org/licenses/by/4.0/)",
      "source": "https://sketchfab.com/3d-models/sword-of-gryffindor-4a89755aeee64fa28bba45f621b76ce0",
      "title": "Sword Of Gryffindor"
    },
    "generator": "Sketchfab-5.36.0",
    "version": "2.0"
  },
  "bufferViews": [
    {
      "buffer": 0,
      "byteLength": 24984,
      "byteOffset": 0,
      "name": "floatBufferViews",
      "target": 34963
    },
    {
      "buffer": 0,
      "byteLength": 160992,
      "byteOffset": 24984,
      "byteStride": 8,
      "name": "floatBufferViews",
      "target": 34962
    },
    {
      "buffer": 0,
      "byteLength": 53664,
      "byteOffset": 185976,
      "byteStride": 12,
      "name": "floatBufferViews",
      "target": 34962
    },
    {
      "buffer": 0,
      "byteLength": 35776,
      "byteOffset": 239640,
      "byteStride": 16,
      "name": "floatBufferViews",
      "target": 34962
    },
    {
      "buffer": 0,
      "byteLength": 256,
      "byteOffset": 275416,
      "byteStride": 64,
      "name": "floatBufferViews"
    }
  ],
  "buffers": [
    {
      "byteLength": 275672,
      "uri": "scene.bin"
    }
  ],
  "images": [
    {
      "uri": "textures/target_swordofgryffindor_mat_baseColor.png"
    },
    {
      "uri": "textures/target_swordofgryffindor_mat_metallicRoughness.png"
    }
  ],
  "materials": [
    {
      "doubleSided": true,
      "name": "target_swordofgryffindor_mat",
      "occlusionTexture": {
        "index": 1,
        "strength": 1,
        "texCoord": 0
      },
      "pbrMetallicRoughness": {
        "baseColorFactor": [
          1,
          1,
          1,
          1
        ],
        "baseColorTexture": {
          "index": 0,
          "texCoord": 0
        },
        "metallicFactor": 1,
        "metallicRoughnessTexture": {
          "index": 1,
          "texCoord": 0
        },
        "roughnessFactor": 0.5
      }
    }
  ],
  "meshes": [
    {
      "name": "target_swordofgryffindor_mesh_0_target_swordofgryffindor_mat_0",
      "primitives": [
        {
          "attributes": {
            "NORMAL": 1,
            "POSITION": 0,
            "TANGENT": 2,
            "TEXCOORD_0": 3,
            "TEXCOORD_1": 4,
            "TEXCOORD_2": 5,
            "TEXCOORD_3": 6,
            "TEXCOORD_4": 7,
            "TEXCOORD_5": 8,
            "TEXCOORD_6": 9,
            "TEXCOORD_7": 10,
            "TEXCOORD_8": 11
          },
          "indices": 12,
          "material": 0,
          "mode": 4
        }
      ]
    }
  ],
  "nodes": [
    {
      "children": [
        1
      ],
      "name": "RootNode (gltf orientation matrix)",
      "rotation": [
        -0.70710678118654746,
        -0,
        -0,
        0.70710678118654757
      ]
    },
    {
      "children": [
        2
      ],
      "name": "RootNode (model correction matrix)"
    },
    {
      "children": [
        3
      ],
      "matrix": [
        1,
        0,
        0,
        0,
        0,
        0,
        1,
        0,
        0,
        -1,
        0,
        0,
        0,
        0,
        0,
        1
      ],
      "name": "target_swordofgryffindor(Clone).fbx"
    },
    {
      "children": [
        4
      ],
      "name": "RootNode"
    },
    {
      "children": [
        5
      ],
      "name": ""
    },
    {
      "children": [
        6
      ],
      "name": "_rootJoint"
    },
    {
      "children": [
        7
      ],
      "name": "target_swordofgryffindor_prefab_00"
    },
    {
      "children": [
        8
      ],
      "name": "target_swordofgryffindor(Clone)_01"
    },
    {
      "children": [
        9
      ],
      "name": "target_swordofgryffindor_mesh_02"
    },
    {
      "children": [
        10
      ],
      "name": "target_swordofgryffindor_mesh_0"
    },
    {
      "mesh": 0,
      "name": "target_swordofgryffindor_mesh_0_target_swordofgryffindor_mat_0"
    }
  ],
  "samplers": [
    {
      "magFilter": 9729,
      "minFilter": 9987,
      "wrapS": 10497,
      "wrapT": 10497
    }
  ],
  "scene": 0,
  "scenes": [
    {
      "name": "OSG_Scene",
      "nodes": [
        0
      ]
    }
  ],
  "skins": [
    {
      "inverseBindMatrices": 13,
      "joints": [
        5,
        6,
        7,
        8
      ],
      "skeleton": 5
    }
  ],
  "textures": [
    {
      "sampler": 0,
      "source": 0
    },
    {
      "sampler": 0,
      "source": 1
    }
  ]
}

