{
  "accessors": [
    {
      "bufferView": 2,
      "componentType": 5126,
      "count": 1265,
      "max": [
        0.42008998990058899,
        12.336299896240234,
        1.4187599420547485
      ],
      "min": [
        -0.41239100694656372,
        -4.119959831237793,
        0.59582000970840454
      ],
      "type": "VEC3"
    },
    {
      "bufferView": 2,
      "byteOffset": 15180,
      "componentType": 5126,
      "count": 1265,
      "max": [
        0.99997550249099731,
        0.99386650323867798,
        0.99998438358306885
      ],
      "min": [
        -0.99996626377105713,
        -0.62760597467422485,
        -0.99968934059143066
      ],
      "type": "VEC3"
    },
    {
      "bufferView": 3,
      "componentType": 5126,
      "count": 1265,
      "max": [
        0.99998933076858521,
        0.99816519021987915,
        0.99977493286132812,
        1
      ],
      "min": [
        -0.99827909469604492,
        -0.99154287576675415,
        -0.99936217069625854,
        -1
      ],
      "type": "VEC4"
    },
    {
      "bufferView": 1,
      "componentType": 5126,
      "count": 1265,
      "max": [
        0.86779999732971191,
        0.98989200592041016
      ],
      "min": [
        0.71399497985839844,
        0.0037066598888486624
      ],
      "type": "VEC2"
    },
    {
      "bufferView": 0,
      "componentType": 5125,
      "count": 7200,
      "max": [
        1264
      ],
      "min": [
        0
      ],
      "type": "SCALAR"
    },
    {
      "bufferView": 2,
      "byteOffset": 30360,
      "componentType": 5126,
      "count": 1489,
      "max": [
        0.95610898733139038,
        -3.9027600288391113,
        2.088979959487915
      ],
      "min": [
        -0.98544102907180786,
        -10.695699691772461,
        0.42724299430847168
      ],
      "type": "VEC3"
    },
    {
      "bufferView": 2,
      "byteOffset": 48228,
      "componentType": 5126,
      "count": 1489,
      "max": [
        0.99940711259841919,
        0.99386650323867798,
        0.99923700094223022
      ],
      "min": [
        -0.99996751546859741,
        -0.99825549125671387,
        -0.99957311153411865
      ],
      "type": "VEC3"
    },
    {
      "bufferView": 3,
      "byteOffset": 20240,
      "componentType": 5126,
      "count": 1489,
      "max": [
        0.99980700016021729,
        0.89618527889251709,
        0.99978947639465332,
        1
      ],
      "min": [
        -0.99887233972549438,
        -0.78756248950958252,
        -0.99987691640853882,
        1
      ],
      "type": "VEC4"
    },
    {
      "bufferView": 1,
      "byteOffset": 10120,
      "componentType": 5126,
      "count": 1489,
      "max": [
        0.49115198850631714,
        0.99572300910949707
      ],
      "min": [
        0.033063501119613647,
        0.00061447499319911003
      ],
      "type": "VEC2"
    },
    {
      "bufferView": 0,
      "byteOffset": 28800,
      "componentType": 5125,
      "count": 8544,
      "max": [
        1488
      ],
      "min": [
        0
      ],
      "type": "SCALAR"
    }
  ],
  "asset": {
    "extras": {
      "author": "avlasova11 (https://sketchfab.com/avlasova11)",
      "license": "CC-BY-4.0 (http://creativecommons.org/licenses/by/4.0/)",
      "source": "https://sketchfab.com/3d-models/harry-potter-magic-wand-4bd3d140b10a48228ad391aef41026db",
      "title": "Harry Potter Magic Wand"
    },
    "generator": "Sketchfab-6.99.1",
    "version": "2.0"
  },
  "bufferViews": [
    {
      "buffer": 0,
      "byteLength": 62976,
      "byteOffset": 0,
      "name": "floatBufferViews",
      "target": 34963
    },
    {
      "buffer": 0,
      "byteLength": 22032,
      "byteOffset": 62976,
      "byteStride": 8,
      "name": "floatBufferViews",
      "target": 34962
    },
    {
      "buffer": 0,
      "byteLength": 66096,
      "byteOffset": 85008,
      "byteStride": 12,
      "name": "floatBufferViews",
      "target": 34962
    },
    {
      "buffer": 0,
      "byteLength": 44064,
      "byteOffset": 151104,
      "byteStride": 16,
      "name": "floatBufferViews",
      "target": 34962
    }
  ],
  "buffers": [
    {
      "byteLength": 195168,
      "uri": "scene.bin"
    }
  ],
  "images": [
    {
      "uri": "textures/lambert1_baseColor.png"
    },
    {
      "uri": "textures/lambert1_metallicRoughness.png"
    },
    {
      "uri": "textures/lambert1_normal.png"
    },
    {
      "uri": "textures/lambert3_baseColor.png"
    },
    {
      "uri": "textures/lambert3_metallicRoughness.png"
    },
    {
      "uri": "textures/lambert3_normal.png"
    }
  ],
  "materials": [
    {
      "doubleSided": true,
      "emissiveFactor": [
        0,
        0,
        0
      ],
      "name": "lambert1",
      "normalTexture": {
        "index": 2,
        "scale": 1,
        "texCoord": 0
      },
      "pbrMetallicRoughness": {
        "baseColorFactor": [
          1,
          1,
          1,
          1
        ],
        "baseColorTexture": {
          "index": 0,
          "texCoord": 0
        },
        "metallicFactor": 1,
        "metallicRoughnessTexture": {
          "index": 1,
          "texCoord": 0
        },
        "roughnessFactor": 1
      }
    },
    {
      "doubleSided": true,
      "emissiveFactor": [
        0,
        0,
        0
      ],
      "name": "lambert3",
      "normalTexture": {
        "index": 5,
        "scale": 1,
        "texCoord": 0
      },
      "pbrMetallicRoughness": {
        "baseColorFactor": [
          1,
          1,
          1,
          1
        ],
        "baseColorTexture": {
          "index": 3,
          "texCoord": 0
        },
        "metallicFactor": 1,
        "metallicRoughnessTexture": {
          "index": 4,
          "texCoord": 0
        },
        "roughnessFactor": 1
      }
    }
  ],
  "meshes": [
    {
      "primitives": [
        {
          "attributes": {
            "NORMAL": 1,
            "POSITION": 0,
            "TANGENT": 2,
            "TEXCOORD_0": 3
          },
          "indices": 4,
          "material": 0,
          "mode": 4
        }
      ]
    },
    {
      "primitives": [
        {
          "attributes": {
            "NORMAL": 6,
            "POSITION": 5,
            "TANGENT": 7,
            "TEXCOORD_0": 8
          },
          "indices": 9,
          "material": 1,
          "mode": 4
        }
      ]
    }
  ],
  "nodes": [
    {
      "children": [
        1
      ],
      "name": "RootNode (gltf orientation matrix)",
      "rotation": [
        -0.70710678118654746,
        -0,
        -0,
        0.70710678118654757
      ]
    },
    {
      "children": [
        2
      ],
      "name": "RootNode (model correction matrix)"
    },
    {
      "children": [
        3,
        4
      ],
      "name": "hp wand.obj.cleaner.materialmerger.gles"
    },
    {
      "mesh": 0,
      "name": ""
    },
    {
      "mesh": 1,
      "name": ""
    }
  ],
  "samplers": [
    {
      "magFilter": 9729,
      "minFilter": 9987,
      "wrapS": 10497,
      "wrapT": 10497
    }
  ],
  "scene": 0,
  "scenes": [
    {
      "name": "OSG_Scene",
      "nodes": [
        0
      ]
    }
  ],
  "textures": [
    {
      "sampler": 0,
      "source": 0
    },
    {
      "sampler": 0,
      "source": 1
    },
    {
      "sampler": 0,
      "source": 2
    },
    {
      "sampler": 0,
      "source": 3
    },
    {
      "sampler": 0,
      "source": 4
    },
    {
      "sampler": 0,
      "source": 5
    }
  ]
}

